<svg xmlns="http://www.w3.org/2000/svg" viewBox="0 0 500 220" role="img">
  <title>ADPI Logo</title>
  <!-- FALCON BODY -->
  <path d="M 130 60 C 145 45 165 40 180 45 C 195 50 205 65 210 80 C 215 95 210 115 200 130 C 190 145 175 155 160 158 C 145 161 128 155 118 145 C 108 135 105 120 108 105 C 111 90 118 73 130 60 Z" fill="rgba(255,255,255,0.85)" stroke="rgba(255,255,255,0.5)" stroke-width="1.2"/>
  <path d="M 165 38 C 178 32 192 33 200 42 C 208 51 207 64 200 72 C 193 80 180 83 170 79 C 160 75 154 63 155 52 C 156 44 158 42 165 38 Z" fill="rgba(255,255,255,0.85)" stroke="rgba(255,255,255,0.5)" stroke-width="1.2"/>
  <path d="M 198 55 C 210 52 220 54 222 60 C 224 66 218 70 210 68 C 202 66 198 62 198 55 Z" fill="rgba(255,255,255,0.6)" stroke="rgba(255,255,255,0.4)" stroke-width="1"/>
  <circle cx="185" cy="52" r="5" fill="rgba(201,168,76,0.9)"/>
  <circle cx="186" cy="51" r="1.5" fill="white"/>
  <path d="M 170 78 C 165 85 160 92 158 100" fill="none" stroke="rgba(255,255,255,0.4)" stroke-width="1"/>
  <path d="M 180 80 C 178 88 175 96 172 105" fill="none" stroke="rgba(255,255,255,0.4)" stroke-width="1"/>
  <path d="M 155 110 C 135 118 108 128 80 145 C 55 160 30 178 20 195 C 35 188 65 178 95 168 C 125 158 150 148 162 142 C 158 138 156 128 155 110 Z" fill="rgba(255,255,255,0.7)" stroke="rgba(255,255,255,0.4)" stroke-width="1.2"/>
  <path d="M 140 120 C 110 132 75 148 45 168" fill="none" stroke="rgba(255,255,255,0.3)" stroke-width="0.8"/>
  <path d="M 145 128 C 118 138 85 153 55 172" fill="none" stroke="rgba(255,255,255,0.3)" stroke-width="0.8"/>
  <path d="M 150 136 C 125 144 95 158 68 176" fill="none" stroke="rgba(255,255,255,0.3)" stroke-width="0.8"/>
  <path d="M 115 155 C 105 168 90 182 75 195 C 85 188 100 178 112 168 Z" fill="rgba(255,255,255,0.7)" stroke="rgba(255,255,255,0.4)" stroke-width="1"/>
  <path d="M 108 158 C 96 170 82 184 68 196 C 78 190 92 180 104 170 Z" fill="rgba(255,255,255,0.7)" stroke="rgba(255,255,255,0.4)" stroke-width="1"/>
  <path d="M 160 158 C 162 168 160 180 155 190" fill="none" stroke="rgba(255,255,255,0.5)" stroke-width="1.5"/>
  <path d="M 155 190 C 148 196 140 200 132 198" fill="none" stroke="rgba(255,255,255,0.5)" stroke-width="1.2"/>
  <path d="M 155 190 C 155 198 154 205 152 210" fill="none" stroke="rgba(255,255,255,0.5)" stroke-width="1.2"/>
  <path d="M 155 190 C 162 197 168 202 172 205" fill="none" stroke="rgba(255,255,255,0.5)" stroke-width="1.2"/>
  <!-- Circuit boxes - gold -->
  <rect x="195" y="25" width="8" height="8" fill="none" stroke="var(--gold,#c9a84c)" stroke-width="1.2" rx="1"/>
  <rect x="208" y="20" width="7" height="7" fill="none" stroke="var(--gold,#c9a84c)" stroke-width="1.2" rx="1"/>
  <rect x="220" y="15" width="6" height="6" fill="none" stroke="var(--gold,#c9a84c)" stroke-width="1.2" rx="1"/>
  <rect x="212" y="32" width="6" height="6" fill="none" stroke="var(--gold,#c9a84c)" stroke-width="1.2" rx="1"/>
  <line x1="203" y1="29" x2="208" y2="26" stroke="var(--gold,#c9a84c)" stroke-width="0.8"/>
  <line x1="215" y1="23" x2="220" y2="20" stroke="var(--gold,#c9a84c)" stroke-width="0.8"/>
  <line x1="215" y1="23" x2="215" y2="32" stroke="var(--gold,#c9a84c)" stroke-width="0.8"/>
  <circle cx="228" cy="42" r="2" fill="var(--gold,#c9a84c)"/>
  <!-- Network dots - gold -->
  <circle cx="148" cy="95" r="2.5" fill="var(--gold,#c9a84c)"/>
  <circle cx="165" cy="88" r="2.5" fill="var(--gold,#c9a84c)"/>
  <circle cx="178" cy="100" r="2.5" fill="var(--gold,#c9a84c)"/>
  <circle cx="158" cy="112" r="2.5" fill="var(--gold,#c9a84c)"/>
  <circle cx="172" cy="118" r="2.5" fill="var(--gold,#c9a84c)"/>
  <circle cx="185" cy="108" r="2" fill="var(--gold,#c9a84c)"/>
  <circle cx="145" cy="110" r="2" fill="var(--gold,#c9a84c)"/>
  <circle cx="168" cy="130" r="2" fill="var(--gold,#c9a84c)"/>
  <line x1="148" y1="95" x2="165" y2="88" stroke="var(--gold,#c9a84c)" stroke-width="0.7" opacity="0.6"/>
  <line x1="165" y1="88" x2="178" y2="100" stroke="var(--gold,#c9a84c)" stroke-width="0.7" opacity="0.6"/>
  <line x1="178" y1="100" x2="172" y2="118" stroke="var(--gold,#c9a84c)" stroke-width="0.7" opacity="0.6"/>
  <line x1="148" y1="95" x2="158" y2="112" stroke="var(--gold,#c9a84c)" stroke-width="0.7" opacity="0.6"/>
  <line x1="158" y1="112" x2="172" y2="118" stroke="var(--gold,#c9a84c)" stroke-width="0.7" opacity="0.6"/>
  <line x1="165" y1="88" x2="158" y2="112" stroke="var(--gold,#c9a84c)" stroke-width="0.7" opacity="0.6"/>
  <line x1="178" y1="100" x2="185" y2="108" stroke="var(--gold,#c9a84c)" stroke-width="0.7" opacity="0.6"/>
  <line x1="145" y1="110" x2="158" y2="112" stroke="var(--gold,#c9a84c)" stroke-width="0.7" opacity="0.6"/>
  <line x1="158" y1="112" x2="168" y2="130" stroke="var(--gold,#c9a84c)" stroke-width="0.7" opacity="0.6"/>
  <line x1="172" y1="118" x2="168" y2="130" stroke="var(--gold,#c9a84c)" stroke-width="0.7" opacity="0.6"/>
  <path d="M 105 195 L 107 190 L 109 195 L 105 192 L 109 192 Z" fill="var(--gold,#c9a84c)" opacity="0.8"/>
  <!-- ADPI text - white/gold -->
  <text x="265" y="145" font-family="Arial,sans-serif" font-size="88" font-weight="700" fill="rgba(255,255,255,0.45)" letter-spacing="-4">AD</text>
  <text x="367" y="145" font-family="Arial,sans-serif" font-size="88" font-weight="700" fill="white" letter-spacing="-4">PI</text>
</svg>
